<svg width="32" height="32" viewBox="0 0 32 32" fill="none" xmlns="http://www.w3.org/2000/svg">
<path d="M27.3353 0H4.66472C2.08847 0 0 2.08847 0 4.66472V27.3353C0 29.9115 2.08847 32 4.66472 32H27.3353C29.9115 32 32 29.9115 32 27.3353V4.66472C32 2.08847 29.9115 0 27.3353 0Z" fill="#525967"/>
<path d="M27.3353 1.39942C28.2013 1.39942 29.0318 1.74344 29.6442 2.3558C30.2566 2.96817 30.6006 3.79871 30.6006 4.66472V27.3353C30.6006 28.2013 30.2566 29.0318 29.6442 29.6442C29.0318 30.2566 28.2013 30.6006 27.3353 30.6006H4.66472C3.79871 30.6006 2.96817 30.2566 2.3558 29.6442C1.74344 29.0318 1.39942 28.2013 1.39942 27.3353V4.66472C1.39942 3.79871 1.74344 2.96817 2.3558 2.3558C2.96817 1.74344 3.79871 1.39942 4.66472 1.39942H27.3353ZM27.3353 0H4.66472C3.42756 0 2.24107 0.49146 1.36627 1.36627C0.49146 2.24107 0 3.42756 0 4.66472V27.3353C0 28.5724 0.49146 29.7589 1.36627 30.6337C2.24107 31.5085 3.42756 32 4.66472 32H27.3353C28.5724 32 29.7589 31.5085 30.6337 30.6337C31.5085 29.7589 32 28.5724 32 27.3353V4.66472C32 3.42756 31.5085 2.24107 30.6337 1.36627C29.7589 0.49146 28.5724 0 27.3353 0Z" fill="#454B57"/>
<path d="M12.0115 27.965C12.5353 27.965 13.0539 27.8619 13.5378 27.6614C14.0217 27.461 14.4614 27.1672 14.8317 26.7969C15.2021 26.4265 15.4958 25.9868 15.6963 25.503C15.8967 25.0191 15.9999 24.5004 15.9999 23.9767V19.9883H12.0115C10.9538 19.9883 9.93931 20.4085 9.19135 21.1565C8.44339 21.9045 8.02319 22.9189 8.02319 23.9767C8.02319 25.0345 8.44339 26.0489 9.19135 26.7969C9.93931 27.5448 10.9538 27.965 12.0115 27.965V27.965Z" fill="#0ACF83"/>
<path d="M8.02319 16C8.02319 14.9422 8.44339 13.9277 9.19135 13.1798C9.93931 12.4318 10.9538 12.0116 12.0115 12.0116H15.9999V19.9883H12.0115C10.9538 19.9883 9.93931 19.5681 9.19135 18.8201C8.44339 18.0722 8.02319 17.0577 8.02319 16Z" fill="#A259FF"/>
<path d="M8.02319 8.02331C8.02319 6.96554 8.44339 5.95109 9.19135 5.20313C9.93931 4.45517 10.9538 4.03497 12.0115 4.03497H15.9999V12.0117H12.0115C10.9538 12.0117 9.93931 11.5915 9.19135 10.8435C8.44339 10.0955 8.02319 9.08108 8.02319 8.02331V8.02331Z" fill="#F24E1E"/>
<path d="M16 4.05829H19.9883C21.0461 4.05829 22.0606 4.47849 22.8085 5.22645C23.5565 5.9744 23.9767 6.98885 23.9767 8.04663C23.9767 9.1044 23.5565 10.1188 22.8085 10.8668C22.0606 11.6148 21.0461 12.035 19.9883 12.035H16V4.05829Z" fill="#FF7262"/>
<path d="M23.9767 16C23.9767 16.7888 23.7428 17.5599 23.3045 18.2158C22.8663 18.8716 22.2434 19.3828 21.5146 19.6847C20.7858 19.9866 19.9839 20.0656 19.2103 19.9117C18.4366 19.7578 17.7259 19.3779 17.1682 18.8201C16.6104 18.2624 16.2305 17.5517 16.0766 16.7781C15.9227 16.0044 16.0017 15.2025 16.3036 14.4737C16.6055 13.7449 17.1167 13.122 17.7725 12.6838C18.4284 12.2455 19.1995 12.0116 19.9883 12.0116C21.0461 12.0116 22.0606 12.4318 22.8085 13.1798C23.5565 13.9277 23.9767 14.9422 23.9767 16Z" fill="#1ABCFE"/>
</svg>
